<?xml version="1.0" encoding="UTF-8"?><svg id="Layer_2" xmlns="http://www.w3.org/2000/svg" viewBox="0 0 414.9 215.91"><g id="Layer_1-2"><path d="M366.49,110.78c-15.01.83-30.05,1.23-45.02,2.45-12.92,1.05-25.77,3.01-38.65,4.5-.1.01-.21.01-.32.01-1.15-.06-1.47-1.67-.4-2.09.05-.02.1-.04.16-.05,20.15-4.98,40.83-6.67,61.28-9.83,21.99-3.4,44.26-.15,66.3-2.77,1.92-.23,5.36-.62,5.05,1.69-.45,3.46-5.37,3.23-7.22,3.12-11.18-.66-15.74,7.82-21.87,14.34-3.92,4.17-9.49,7.43-11.83,12.29-4.97,10.35-16.6,17.42-16.16,30.14.32,9.12,2.63,18.16,3.83,27.27.5,3.81.41,7.69.63,11.72.36,3.44.73,6.71.96,9.99.05.68-.3,1.53-.75,2.04-.24.28-1.19.19-1.68-.04-13.89-6.61-27.72-2.79-41.52.26-1.9.42-1.57-.75-1.67-1.61-1.78-14.62-3.53-29.24-5.28-43.86-1.11-9.25-9.54-13.19-14.45-19.65-7.79-10.26-16.22-20.05-24.3-30.1-.27-.33-.33-.83-.36-1.35-.03-.65.49-1.19,1.14-1.16.32.02.62.07.85.22,8.7,5.49,13.75,14.56,20.97,21.54,6.41,6.19,12.7,12.75,17.65,20.09,2.79,4.13,3.05,10.12,3.95,15.36.91,5.3,1.26,10.71,1.76,16.07.31,3.34.55,6.8.55,10.03,0,10.75,5.23,6.96,9.2,6.06,8.75-1.97,17.37-1.82,26.05-.45,2.22.35,2.24-.43,2.12-1.97-.87-11.27-1.38-22.59-2.7-33.8-1.63-13.82,5.99-23.88,12.8-34.4,6.07-9.39,13.58-17.54,21.6-25.25.21-.2,3.36-2.4,3.12-2.76"/><path d="M397.16,15.45c2.49,5.74,4.21,8.32,3.21,14.34-.07.43-.44,1.35-.77,2.02-4.05,8.32,4.23,10.14,7.86,13.86,5.47,5.58,4.02,11.81,3.46,18.06-.73,8.14-4.76,15.01-9.18,21.64-.48.72-2.13,1.58-2.47,1.34-2.28-1.69-1.66-4.53-.87-6.27,3.3-7.19,6.56-14.23,6.75-22.43.13-5.58-3.86-8.34-7.43-10.06-6.19-2.98-6.88-7.75-6.89-13.39-.03-16.58-5.52-22.06-21.57-24.78-6.21-1.06-7.76,1.39-10.27,5.61-2.14,3.61-6.27,5.37-8.69.37-2.09-4.32-4.87-1.77-7.2-1.72-6.34.13-9.76-8.71-16.39-5.82-8.15,3.56-16.26,5.05-25.14,4.45-3.4-.23-3.11,4.33-3.92,6.92-2.3,7.32-7.65,9.42-14.65,9.33-11.71-.15-6.18,10.63-9.57,15.82-2.8,4.28-5.51,8.05-9.59,11.32-5.12,4.11-.75,9.07,1.41,12.65,1.16,1.91,2.33,4.11,2.01,5.56-2.36,10.76,7.59,15.81,10.64,23.97.15.41.22.85.26,1.31.07.84-.82,1.45-1.57,1.06-.31-.16-.59-.34-.79-.59-5.13-6.25-12.26-12.41-11.59-20.68.64-7.96-6.51-12.33-5.98-19.61.17-2.44.06-5.24,2.25-6.08,8.38-3.2,11.26-10.64,11.29-17.9.04-10.55,7.84-10.31,13.96-12.08,4.12-1.2,7.37-1.42,8.41-6.77,1.86-9.58,9.59-10.62,17.64-10.38C318.49,6.69,322.57.02,329.22,0c4.34-.01,7.83,2.15,11.7,3.43,6.37,2.12,13.02,5.13,20.41-.68,6.43-5.05,27.1,1.27,32.42,7.64"/><path d="M9.25,198.15c-1.98-1.48-3.58-3.52-4.81-6.11-.62,1.24-1.17,2.59-1.67,4.07-.49,1.48-.8,2.59-.93,3.33H0v-65.7h1.85c0,8.64.49,18.02,1.48,28.13.99,10.12,2.56,18.76,4.72,25.91,2.16,7.16,4.84,10.73,8.05,10.73,1.73,0,3.11-.89,4.16-2.68,1.05-1.79,1.57-4.1,1.57-6.94,0-3.45-.43-7.34-1.3-11.66-.86-4.32-2.07-9.13-3.61-14.44-1.54-5.3-3.12-10.61-4.72-15.92-2.72-8.88-4.84-16.19-6.39-21.93-1.54-5.74-2.9-11.75-4.07-18.04-1.17-6.29-1.76-12.22-1.76-17.77,0-4.44.37-8.17,1.11-11.2.74-3.02,1.82-5.3,3.24-6.85,1.42-1.54,3.18-2.31,5.27-2.31,2.59,0,4.56.5,5.92,1.48,1.36.99,2.84,2.78,4.44,5.37.62,0,1.2-.34,1.76-1.02.56-.68,1.02-1.51,1.39-2.5.37-.99.56-1.73.56-2.22h1.85v58.3h-1.85c0-10.49-.56-20.11-1.67-28.87-1.11-8.76-2.68-15.73-4.72-20.91-2.04-5.18-4.35-7.77-6.94-7.77-1.98,0-3.3.65-3.98,1.94-.68,1.3-1.02,3.61-1.02,6.94,0,3.7.46,7.77,1.39,12.22.93,4.44,2.19,9.41,3.79,14.9,1.6,5.49,3.33,10.89,5.18,16.19,2.84,8.64,5.12,15.89,6.85,21.75,1.73,5.86,3.21,11.97,4.44,18.32,1.23,6.36,1.85,12.37,1.85,18.04,0,7.16-1.33,12.19-3.98,15.08-2.65,2.9-5.52,4.35-8.61,4.35-2.72,0-5.06-.74-7.03-2.22Z"/><path d="M33.87,195.84c1.11-1.17,1.73-3.05,1.85-5.64l8.88-120.3h9.62l9.25,127.71h3.52v1.85h-17.21v-1.85h4.63l-9.44-122.89,1.11.37-7.96,107.72c-.37,3.83-.37,6.82,0,8.98.37,2.16,1.08,3.67,2.13,4.53,1.05.87,2.56,1.3,4.53,1.3v1.85h-15.92v-1.85c2.22,0,3.89-.58,5-1.76ZM38.68,165.39h16.1v2.22h-16.1v-2.22Z"/><path d="M67.56,71.75h-3.52v-1.85h17.21v1.85h-4.63l9.07,121.23-.93,3.52,8.14-109.94c.25-3.08.12-5.74-.37-7.96-.49-2.22-1.36-3.92-2.59-5.09-1.23-1.17-2.78-1.76-4.63-1.76v-1.85h16.84v1.85c-2.22,0-3.89.59-5,1.76-1.11,1.17-1.73,3.05-1.85,5.64l-8.88,120.3h-9.62l-9.25-127.7Z"/><path d="M105.77,190.01c-1.91-6.91-3.21-15.24-3.89-24.99-.68-9.75-1.02-19.92-1.02-30.54,0-14.81.52-27.08,1.57-36.83,1.05-9.75,2.56-17,4.53-21.75,1.97-4.75,4.38-7.13,7.22-7.13,1.97,0,3.58.59,4.81,1.76,1.23,1.17,2.41,3.05,3.52,5.64.99,0,1.85-.68,2.59-2.04.74-1.36,1.11-2.78,1.11-4.26h1.85v58.3h-1.85c0-5.8-.53-13.33-1.57-22.58-1.05-9.25-2.47-17.33-4.26-24.25-1.79-6.91-3.86-10.37-6.2-10.37-.86,0-1.51,1.51-1.94,4.54-.43,3.02-.74,8.88-.93,17.58-.19,8.7-.28,22.49-.28,41.37,0,13.45.06,25.33.19,35.63.12,10.3.46,17.58,1.02,21.84s1.45,6.39,2.68,6.39c1.97,0,3.27-1.69,3.89-5.09.62-3.39.93-8.91.93-16.56v-42.01h-4.26v-1.85h17.4v1.85h-4.26v64.78h-1.85l-1.67-22.76h-.93c-.62,7.9-1.64,13.82-3.05,17.77-1.42,3.95-3.79,5.92-7.13,5.92-3.58,0-6.32-3.45-8.24-10.37Z"/><path d="M134.74,197.6h4.26v-125.85h-4.26v-1.85h17.95v1.85h-4.07v125.85h2.78c2.96,0,5.18-1.67,6.66-5,1.48-3.33,2.62-10.15,3.42-20.45.8-10.3,1.39-26.5,1.76-48.58h1.85v75.88h-30.35v-1.85Z"/><path d="M171.94,195.84c1.11-1.17,1.73-3.05,1.85-5.64l8.88-120.3h9.62l9.25,127.71h3.52v1.85h-17.21v-1.85h4.63l-9.44-122.89,1.11.37-7.96,107.72c-.37,3.83-.37,6.82,0,8.98.37,2.16,1.08,3.67,2.13,4.53,1.05.87,2.56,1.3,4.53,1.3v1.85h-15.92v-1.85c2.22,0,3.89-.58,5-1.76ZM176.75,165.39h16.1v2.22h-16.1v-2.22Z"/><path d="M211.82,190.01c-1.91-6.91-3.21-15.24-3.89-24.99-.68-9.75-1.02-19.92-1.02-30.54,0-14.81.52-27.08,1.57-36.83,1.05-9.75,2.56-17,4.53-21.75,1.97-4.75,4.38-7.13,7.22-7.13,1.23,0,2.44.62,3.61,1.85,1.17,1.24,2.25,3.09,3.24,5.55.99,0,1.85-.68,2.59-2.04.74-1.36,1.11-2.78,1.11-4.26h1.85v58.3h-1.85c0-5.67-.49-13.14-1.48-22.39-.99-9.25-2.28-17.37-3.89-24.34-1.6-6.97-3.33-10.46-5.18-10.46-.86,0-1.51,1.51-1.94,4.54-.43,3.02-.74,8.88-.93,17.58-.19,8.7-.28,22.49-.28,41.37,0,12.59.06,24,.19,34.24.12,10.24.46,17.74,1.02,22.49.56,4.75,1.45,7.13,2.68,7.13,2.34,0,4.29-3.24,5.83-9.72,1.54-6.48,2.62-14.28,3.24-23.41.62-9.13.93-17.89.93-26.28h1.85c-.12,16.54-1.11,30.91-2.96,43.12s-5.12,18.32-9.81,18.32c-3.58,0-6.32-3.45-8.24-10.37Z"/><path d="M238.38,197.6h4.26v-125.85h-4.26v-1.85h30.35v54.23h-1.85c0-15.42-.4-26.87-1.2-34.33-.8-7.46-2.01-12.34-3.61-14.62-1.6-2.28-3.95-3.42-7.03-3.42h-2.78v125.85h2.78c2.96,0,5.27-1.7,6.94-5.09,1.67-3.39,2.9-9.35,3.7-17.86.8-8.51,1.2-20.6,1.2-36.28h1.85v61.08h-30.35v-1.85ZM247.63,62.49l-1.85-.74,5.92-19.43c.37-1.23.95-2.25,1.76-3.05.8-.8,1.82-1.36,3.05-1.67,1.23-.31,2.53-.15,3.89.46,1.36.74,2.31,1.73,2.87,2.96.56,1.23.74,2.47.56,3.7-.19,1.24-.77,2.35-1.76,3.33l-14.44,14.44ZM257.72,150.03c-.31-6.29-.86-10.83-1.67-13.6-.8-2.78-1.88-4.16-3.24-4.16h-2.04v-1.85h2.04c1.36,0,2.43-1.39,3.24-4.17.8-2.78,1.36-7.31,1.67-13.6.31-6.29.46-14.99.46-26.1h1.85v89.58h-1.85c0-11.1-.16-19.8-.46-26.1Z"/></g></svg>